<svg version="1.2" xmlns="http://www.w3.org/2000/svg" viewBox="0 0 16 16" width="16" height="16"><style>.a{fill:#355e3b}</style><path fill-rule="evenodd" d="m1.5 2h13l0.5 0.5v5.5q-0.1-0.1-0.2-0.2-0.2 0-0.3-0.1-0.1-0.1-0.2-0.2-0.2 0-0.3-0.1v-4.4h-12v9h5q0 0.4 0.1 0.8 0 0.4 0.2 0.8 0.1 0.4 0.3 0.7 0.2 0.4 0.4 0.7h-4v-1h3v-1h-5.5l-0.5-0.5v-10z"/><path class="a" d="m12 8q0.6 0 1.1 0.1 0.5 0.2 0.9 0.4 0.5 0.3 0.8 0.7 0.4 0.3 0.7 0.8 0.2 0.3 0.3 0.7 0.1 0.4 0.2 0.8 0 0.4 0 0.8 0 0.4-0.1 0.8-0.2 0.5-0.4 0.9-0.1 0.1-0.2 0.2-0.1 0.1-0.1 0.2-0.1 0.1-0.2 0.2-0.1 0.1-0.2 0.2-0.3 0.4-0.8 0.7-0.3 0.2-0.7 0.3-0.4 0.1-0.8 0.2-0.4 0-0.8 0-0.4 0-0.8-0.1-0.1-0.1-0.2-0.1-0.1-0.1-0.3-0.1-0.1-0.1-0.2-0.1-0.1-0.1-0.2-0.1-0.1-0.1-0.2-0.2-0.1-0.1-0.2-0.1-0.1-0.1-0.2-0.2-0.1-0.1-0.2-0.2-0.1-0.1-0.2-0.2-0.1-0.1-0.2-0.2 0-0.1-0.1-0.2-0.1-0.1-0.2-0.2-0.2-0.3-0.3-0.7-0.1-0.4-0.2-0.8 0-0.4 0-0.8 0-0.4 0.1-0.8 0.2-0.5 0.4-0.9 0.3-0.5 0.7-0.8 0.3-0.4 0.8-0.7 0.2-0.1 0.5-0.2 0.2-0.1 0.5-0.2 0.2 0 0.5-0.1 0.2 0 0.5 0zm2 4l-3-2v4z"/></svg>